<svg xmlns="http://www.w3.org/2000/svg" xmlns:svg="http://www.w3.org/2000/svg" xmlns:xlink="http://www.w3.org/1999/xlink" id="svg2" width="744.094" height="1052.362"><defs id="defs4"><linearGradient id="linearGradient3228"><stop id="stop3236" offset="0" stop-color="#fff" stop-opacity="0"/><stop id="stop3242" offset=".5" stop-color="#fff" stop-opacity="1"/><stop id="stop3238" offset="1" stop-color="#fff" stop-opacity="0"/></linearGradient><linearGradient id="linearGradient3882" x1="-734.286" x2="-688.571" y1="-636.648" y2="-636.648" gradientTransform="matrix(4.5380714,0,0,1.4731251e-2,2448.7314,99.525479)" gradientUnits="userSpaceOnUse" xlink:href="#linearGradient3228"/><linearGradient id="linearGradient3884" x1="-734.286" x2="-688.571" y1="-636.648" y2="-636.648" gradientTransform="matrix(4.5380714,0,0,1.4731249e-2,2982.3045,-611.53389)" gradientUnits="userSpaceOnUse" xlink:href="#linearGradient3228"/></defs><metadata id="metadata7"/><g id="layer1"><rect id="rect2413" width="217.977" height="217.977" x="261.526" y="441.833" fill="#000" fill-rule="evenodd" stroke="#000" stroke-linecap="butt" stroke-linejoin="miter" stroke-opacity="1" stroke-width=".424" ry="0"/><rect id="rect2415" width="123.52" height="123.52" x="-57.313" y="-590.195" fill="#fff" ry="0" transform="matrix(-0.7071068,0.7071068,-0.7071068,-0.7071068,0,0)"/><rect id="rect2421" width="123.52" height="123.52" x="190.156" y="-837.663" fill="#fff" ry="0" transform="matrix(-0.7071068,0.7071068,-0.7071068,-0.7071068,0,0)"/><rect id="rect2448" width="213.07" height="4.892" x="-889.125" y="91.21" fill="url(#linearGradient3882)" fill-opacity="1" transform="matrix(-0.7071068,-0.7071068,-0.7071068,0.7071068,0,0)"/><rect id="rect3244" width="213.07" height="4.892" x="-355.552" y="-619.85" fill="url(#linearGradient3884)" fill-opacity="1" transform="matrix(0.7071068,-0.7071068,-0.7071068,-0.7071068,0,0)"/><rect id="rect2419" width="123.52" height="123.52" x="-39.958" y="-818.883" fill="#fff" ry="0" transform="matrix(-0.7071068,0.7071068,-0.7071068,-0.7071068,0,0)"/><rect id="rect3258" width="114.371" height="114.371" x="-55.822" y="-832.956" fill="#000" ry="0" transform="matrix(-0.7071068,0.7071068,-0.7071068,-0.7071068,0,0)"/><rect id="rect3256" width="243.209" height="243.209" x="-723.796" y="-679.714" fill="#fff" ry="0" transform="scale(-1,-1)"/><rect id="rect2417" width="123.52" height="123.52" x="170.917" y="-608.008" fill="#fff" ry="0" transform="matrix(-0.7071068,0.7071068,-0.7071068,-0.7071068,0,0)"/><rect id="rect3266" width="114.371" height="114.371" x="194.066" y="-585.355" fill="#000" ry="0" transform="matrix(-0.7071068,0.7071068,-0.7071068,-0.7071068,0,0)"/><rect id="rect3268" width="243.209" height="243.209" x="-259.519" y="-686.184" fill="#fff" ry="0" transform="scale(-1,-1)"/><text id="text3252" x="260.457" y="691.973" fill="#000" fill-opacity="1" stroke="none" stroke-linecap="butt" stroke-linejoin="miter" stroke-opacity="1" stroke-width="1" font-family="Bitstream Vera Sans" font-size="28.653" font-style="normal" font-weight="normal" xml:space="preserve"><tspan id="tspan3254" x="260.457" y="691.973">XPTemplate</tspan></text><g id="g2443" transform="matrix(0.1076722,0,0,0.1076722,503.2351,370.09702)"><path id="path2429" fill="#fff" d="M -482.85712,599.50507 A 230,230 0 1 1 -942.85712,599.50507 A 230,230 0 1 1 -482.85712,599.50507 z" transform="matrix(1,0,0,-1,120,1624.7244)"/><path id="path2431" fill="#000" d="M -482.85712,599.50507 A 230,230 0 1 1 -942.85712,599.50507 A 230,230 0 1 1 -482.85712,599.50507 z" transform="matrix(0.3913043,0,0,-0.3913043,-313.91302,1259.8083)"/><rect id="rect2433" width="142.857" height="474.286" x="-822.857" y="975.219" fill="#fff" ry="68.571"/></g><text id="text3294" x="486.852" y="485.476" fill="#000" fill-opacity="1" stroke="none" stroke-linecap="butt" stroke-linejoin="miter" stroke-opacity="1" stroke-width="1" font-family="Bitstream Vera Sans" font-size="61.065" font-stretch="normal" font-style="normal" font-variant="normal" font-weight="normal" text-anchor="start" writing-mode="lr-tb" xml:space="preserve" style="text-align:start;line-height:125%;-inkscape-font-specification:Bitstream Vera Sans"><tspan id="tspan3296" x="486.852" y="485.476">T</tspan></text></g></svg>